<svg id="Capa_1" data-name="Capa 1" xmlns="http://www.w3.org/2000/svg" xmlns:xlink="http://www.w3.org/1999/xlink" viewBox="0 0 100.4 17.71"><defs><style>.cls-1{fill:none;}.cls-2{fill:#004d93;}.cls-3{fill:#f3a409;}.cls-4{fill:#1d1611;}.cls-5{fill:#fff;}.cls-6{fill:#004c94;}.cls-7{clip-path:url(#clip-path);}.cls-8{fill:#4c7cca;}.cls-9{fill:#0c0a0d;}.cls-10{fill:#ea001b;}.cls-11{fill:#ff5f01;}.cls-12{fill:#f79f1a;}.cls-13{clip-path:url(#clip-path-2);}.cls-14{clip-path:url(#clip-path-3);}.cls-15{clip-path:url(#clip-path-4);}.cls-16{clip-path:url(#clip-path-5);}.cls-17{clip-path:url(#clip-path-6);}.cls-18{clip-path:url(#clip-path-7);}.cls-19{clip-path:url(#clip-path-8);}</style><clipPath id="clip-path" transform="translate(0.9 1.49)"><rect class="cls-1" x="56.59" y="0.07" width="14.76" height="14.17" rx="1.21"/></clipPath><clipPath id="clip-path-2" transform="translate(0.9 1.49)"><rect class="cls-1" y="0.15" width="22" height="14.07" rx="1.19"/></clipPath><clipPath id="clip-path-3" transform="translate(0.9 1.49)"><path id="SVGID" class="cls-2" d="M7.26,4.36,5.8,8.21,5.18,5a.67.67,0,0,0-.66-.58H2.1l0,.17A6,6,0,0,1,3.48,5a.63.63,0,0,1,.34.5L5,10h1.5L8.76,4.36Z"/></clipPath><clipPath id="clip-path-4" transform="translate(0.9 1.49)"><rect id="SVGID-2" data-name="SVGID" class="cls-2" x="-0.11" y="0.04" width="22.15" height="2.03" transform="matrix(1, 0, 0, 1, 0, 0.04)"/></clipPath><clipPath id="clip-path-5" transform="translate(0.9 1.49)"><rect id="SVGID-3" data-name="SVGID" class="cls-3" x="-0.07" y="12.25" width="22.15" height="2.03" transform="translate(-0.05 0.04) rotate(-0.21)"/></clipPath><clipPath id="clip-path-6" transform="translate(0.9 1.49)"><path id="SVGID-4" data-name="SVGID" class="cls-2" d="M12.66,5.91c0-.2.19-.42.6-.48a2.62,2.62,0,0,1,1.41.25l.24-1.2a3.91,3.91,0,0,0-1.33-.24c-1.4,0-2.39.77-2.39,1.87,0,.81.71,1.26,1.25,1.53s.74.45.74.7-.44.54-.85.55a2.87,2.87,0,0,1-1.47-.35l-.25,1.24a4.24,4.24,0,0,0,1.58.29c1.5,0,2.48-.77,2.48-1.94C14.67,6.65,12.65,6.57,12.66,5.91Z"/></clipPath><clipPath id="clip-path-7" transform="translate(0.9 1.49)"><polygon id="SVGID-5" data-name="SVGID" class="cls-2" points="9.37 4.36 8.21 10 9.63 9.99 10.79 4.35 9.37 4.36"/></clipPath><clipPath id="clip-path-8" transform="translate(0.9 1.49)"><path id="SVGID-6" data-name="SVGID" class="cls-2" d="M17.32,4.33a.66.66,0,0,0-.61.41L14.6,10h1.49l.3-.85h1.82l.18.84H19.7L18.53,4.32ZM16.79,8l.74-2.12L18,8Z"/></clipPath></defs><title>4TARJETAS 100X15</title><path class="cls-4" d="M79.93,8.94c0-.38-.2-.36-.39-.36V8.47h1.22a1.53,1.53,0,0,1,1.7,1.47c0,.42-.24,1.47-1.74,1.47H79.55v-.11c.25,0,.37,0,.38-.32V8.94Zm.42,2c0,.32.23.36.44.36A1.17,1.17,0,0,0,82,10,1.27,1.27,0,0,0,80.67,8.6c-.18,0-.26,0-.33,0v2.3Z" transform="translate(0.9 1.49)"/><path class="cls-4" d="M82.61,11.3h.08c.12,0,.2,0,.2-.14V10c0-.18-.06-.21-.22-.29V9.65l.45-.15a.12.12,0,0,1,.08,0s0,0,0,0v1.62c0,.14.09.14.21.14h.07v.11h-.9V11.3Zm.44-2.47a.21.21,0,0,1-.2-.21.22.22,0,0,1,.2-.21.21.21,0,0,1,.21.2.21.21,0,0,1-.21.22" transform="translate(0.9 1.49)"/><path class="cls-4" d="M83.91,10c0-.15,0-.19-.24-.27V9.68a5.53,5.53,0,0,0,.55-.21s0,0,0,0v.28A1.18,1.18,0,0,1,85,9.47c.36,0,.48.26.48.59v1.09c0,.14.09.14.21.14h.08v.11h-.91v-.11h.08c.12,0,.2,0,.2-.14V10.06c0-.25-.15-.36-.39-.36a1.13,1.13,0,0,0-.49.2v1.25c0,.14.1.14.21.14h.08v.11h-.9v-.11h.07c.12,0,.21,0,.21-.14V10Z" transform="translate(0.9 1.49)"/><path class="cls-4" d="M86.07,10.23a1.73,1.73,0,0,0,0,.24.72.72,0,0,0,.63.73.84.84,0,0,0,.57-.28l.06.06a1.06,1.06,0,0,1-.78.48.85.85,0,0,1-.81-.92c0-.83.55-1.08.85-1.08a.67.67,0,0,1,.71.66v.08l0,0Zm.75-.14c.11,0,.12-.05.12-.11a.35.35,0,0,0-.37-.38c-.26,0-.43.19-.48.49Z" transform="translate(0.9 1.49)"/><path class="cls-4" d="M87.4,11.28h.12c.11,0,.2,0,.2-.14V10c0-.13-.15-.15-.22-.19V9.7c.31-.13.48-.24.52-.24s0,0,0,0v.38h0c.1-.16.28-.43.54-.43a.22.22,0,0,1,.24.22.2.2,0,0,1-.2.21c-.13,0-.13-.1-.28-.1a.36.36,0,0,0-.31.36v1c0,.14.08.14.2.14h.24v.11H87.4v-.11Z" transform="translate(0.9 1.49)"/><path class="cls-4" d="M89,10.8a.55.55,0,0,0,.53.51c.25,0,.34-.15.34-.3,0-.5-.92-.34-.92-1a.58.58,0,0,1,.65-.54,1.17,1.17,0,0,1,.48.12l0,.43H90a.43.43,0,0,0-.46-.41c-.17,0-.33.1-.32.28,0,.49,1,.34,1,1,0,.28-.22.57-.73.57A1,1,0,0,1,89,11.3l0-.48.08,0Z" transform="translate(0.9 1.49)"/><path class="cls-4" d="M94,9.18h-.1A.81.81,0,0,0,93,8.49a1.21,1.21,0,0,0-1.18,1.35,1.37,1.37,0,0,0,1.26,1.46.87.87,0,0,0,.85-.74l.09,0L94,11.2a2.4,2.4,0,0,1-.93.23,1.5,1.5,0,0,1-1.62-1.58A1.54,1.54,0,0,1,93,8.36a3.21,3.21,0,0,1,1,.22l0,.6Z" transform="translate(0.9 1.49)"/><path class="cls-4" d="M94.2,11.25h.08c.12,0,.21,0,.21-.14V8.76c0-.27-.07-.28-.23-.33V8.37a3.35,3.35,0,0,0,.44-.19l.09,0s0,0,0,.06v2.91c0,.14.1.14.22.14h.07v.11H94.2v-.11Z" transform="translate(0.9 1.49)"/><path class="cls-4" d="M96.91,11.12c0,.08,0,.08.12.08h.17v.09a3.18,3.18,0,0,0-.61.13h0v-.35a1.11,1.11,0,0,1-.75.36.45.45,0,0,1-.46-.5V9.84c0-.11,0-.22-.25-.24V9.52l.54,0s0,0,0,.13V10.7c0,.13,0,.49.37.49a.9.9,0,0,0,.5-.26V9.8c0-.09-.2-.13-.35-.17V9.55l.65-.06s0,0,0,.07v1.56Z" transform="translate(0.9 1.49)"/><path class="cls-4" d="M97.75,9.73a1,1,0,0,1,.63-.31.81.81,0,0,1,.78.88,1.05,1.05,0,0,1-1,1.11,1.38,1.38,0,0,1-.59-.14l-.12.09-.09,0a6.3,6.3,0,0,0,0-.75V8.75c0-.27-.07-.28-.23-.33V8.36a3.35,3.35,0,0,0,.44-.19l.09,0s0,0,0,.06V9.73Zm0,1.14a.46.46,0,0,0,.44.43c.45,0,.64-.44.64-.82a.81.81,0,0,0-.68-.83.62.62,0,0,0-.4.2v1Z" transform="translate(0.9 1.49)"/><path class="cls-4" d="M80.26,13.86h0c-.08,0-.16,0-.16-.12v-1.2c0-.12.08-.12.16-.13h.05v-.07h-.72v.08h0c.08,0,.16,0,.16.12v1.2c0,.11-.07.12-.16.12h0v.07h.72v-.08Z" transform="translate(0.9 1.49)"/><path class="cls-4" d="M82.19,12.32h-.62v.08h.06c.07,0,.19,0,.19.2v.85l-1-1.13h-.49v.07h0a.2.2,0,0,1,.2.2v1c0,.18,0,.28-.2.28h0v.08H81v-.08h0c-.17,0-.21-.06-.21-.26v-.92L81.87,14H82a1.69,1.69,0,0,1,0-.23V12.69c0-.27.1-.28.2-.28h0v-.08Z" transform="translate(0.9 1.49)"/><path class="cls-4" d="M83.78,12.24h0c0,.06,0,.06-.12.06H82.47c-.06,0-.1,0-.12-.06h-.07a1.36,1.36,0,0,1,0,.2,1.25,1.25,0,0,1,0,.19h.09c0-.17,0-.19.21-.2h.36v1.22c0,.18-.06.18-.18.18h-.06v.08h.78v-.08h-.06c-.11,0-.17,0-.18-.19V12.45h.36c.15,0,.16.12.17.21h0l.08,0h0a1.09,1.09,0,0,1,0-.18,1.23,1.23,0,0,1,0-.19h-.07Z" transform="translate(0.9 1.49)"/><path class="cls-4" d="M85.16,13.53h0c-.06.26-.18.27-.45.27s-.27,0-.27-.14v-.52h.26c.15,0,.15.07.17.22h0l.08,0h0a2.35,2.35,0,0,1,0-.26,2.44,2.44,0,0,1,0-.27h-.09c0,.12,0,.19-.17.19h-.27v-.58h.31c.24,0,.26.11.27.26h0l.08,0h0c0-.07,0-.15,0-.23a.41.41,0,0,1,0-.12H83.91v.08h0c.08,0,.16,0,.16.12v1.2c0,.12-.07.12-.16.13h0v.07h0l.61,0h.63c0-.12,0-.24.08-.36h0l-.07,0Z" transform="translate(0.9 1.49)"/><path class="cls-4" d="M86.91,13.84h0a.24.24,0,0,1-.21-.14l-.39-.57a.45.45,0,0,0,.31-.41c0-.34-.27-.42-.56-.42h-.73v.08h.05c.07,0,.15,0,.15.16v1.17c0,.07-.07.11-.15.11h-.06v.08h.75v-.08h0c-.11,0-.17,0-.18-.17v-.49H86a6.69,6.69,0,0,0,.47.74h.46v-.07Zm-.62-1.11c0,.27-.12.35-.35.35h-.1v-.66H86A.31.31,0,0,1,86.29,12.73Z" transform="translate(0.9 1.49)"/><path class="cls-4" d="M88.83,12.38V12.3H88.2v.08h.06c.07,0,.19,0,.19.2v.85l-1-1.14H87v.08h0a.21.21,0,0,1,.2.2v1c0,.19,0,.28-.2.29h0v.07h.63v-.08h0c-.17,0-.2-.05-.21-.25v-.93L88.5,14h.11a.86.86,0,0,1,0-.23v-1c0-.28.1-.28.19-.29h0Z" transform="translate(0.9 1.49)"/><path class="cls-4" d="M90.42,13.82h0c-.07,0-.12,0-.14-.08l-.09-.24-.42-1.2,0-.05a0,0,0,0,0,0,0h0l-.21.1c0,.09-.06.2-.09.29L89,13.69a.19.19,0,0,1-.19.14h0v.08h.55v-.08h0c-.07,0-.16,0-.16-.07a1.32,1.32,0,0,1,0-.18l.07-.23h.51l.08.26a.54.54,0,0,1,0,.16s-.08.05-.13.05h0v.08h.68v-.08Zm-.7-.62h-.4l.2-.62Z" transform="translate(0.9 1.49)"/><path class="cls-4" d="M91.76,12.21h0c0,.06-.05.06-.11.06h-1.2c-.06,0-.1,0-.12-.06h-.07c0,.07,0,.13,0,.2l0,.19h.09c0-.17,0-.19.2-.2h.37v1.22c0,.18,0,.18-.18.18h0v.08h.78v-.08h-.05c-.11,0-.18,0-.18-.19V12.42h.37c.14,0,.15.12.16.21h0l.08,0h0v-.18l0-.19h-.08Z" transform="translate(0.9 1.49)"/><path class="cls-4" d="M92.63,13.81h0c-.08,0-.15,0-.16-.12v-1.2c0-.11.08-.12.16-.12h0v-.08H91.9v.08h0c.09,0,.16,0,.16.12V13.7c0,.11-.08.12-.16.12h0v.07h.72v-.08Z" transform="translate(0.9 1.49)"/><path class="cls-4" d="M93.53,12.24a.85.85,0,0,0-.86.86.82.82,0,0,0,.88.83.85.85,0,0,0,.87-.89A.82.82,0,0,0,93.53,12.24Zm0,1.57c-.37,0-.55-.38-.56-.79s.12-.65.51-.66.56.4.56.73S94,13.81,93.57,13.81Z" transform="translate(0.9 1.49)"/><path class="cls-4" d="M96.32,12.36v-.08H95.7v.08h.06c.07,0,.19,0,.19.2v.85l-1-1.13h-.49v.08h0a.2.2,0,0,1,.2.2v1c0,.18,0,.28-.2.28h0v.08h.63v-.07h0c-.17,0-.2-.06-.21-.26v-.92L96,13.92h.1a1.69,1.69,0,0,1,0-.23v-1c0-.27.09-.28.19-.28h0Z" transform="translate(0.9 1.49)"/><path class="cls-4" d="M97.92,13.8h0c-.07,0-.12,0-.14-.09l-.09-.23-.43-1.2a.14.14,0,0,0,0-.06h0a1,1,0,0,1-.21.1,2.46,2.46,0,0,1-.09.29l-.37,1.06a.19.19,0,0,1-.19.14h0v.08h.55v-.08h0c-.08,0-.16,0-.16-.07a.62.62,0,0,1,0-.18l.07-.23h.5l.09.26a.54.54,0,0,1,0,.16s-.08.06-.13.06h0v.08h.68v-.07Zm-.7-.63h-.4l.2-.61Z" transform="translate(0.9 1.49)"/><path class="cls-4" d="M99.22,13.47h0a.37.37,0,0,1-.07.16.31.31,0,0,1-.21.12h-.3c-.07,0-.13,0-.13-.12V12.46c0-.11,0-.11.14-.11h.07v-.08H98v.08h0c.08,0,.16,0,.16.12v1.18c0,.14-.08.14-.16.14h0v.08h1.24c0-.13,0-.26.08-.39h-.08Z" transform="translate(0.9 1.49)"/><path class="cls-4" d="M99.26,12.2a.24.24,0,0,0-.24.24.24.24,0,0,0,.48,0A.24.24,0,0,0,99.26,12.2Zm0,.44a.19.19,0,0,1-.19-.2.19.19,0,0,1,.38,0A.19.19,0,0,1,99.26,12.64Z" transform="translate(0.9 1.49)"/><path class="cls-4" d="M99.29,12.45a.08.08,0,0,0,0-.07.07.07,0,0,0-.08-.07h-.12v0s0,0,0,0v.18s0,0,0,0h.12s0,0,0,0v-.08h0c0,.06.06.11.08.11h0l0-.05Zm-.07,0v-.11h0s0,0,0,.05,0,.06,0,.06Z" transform="translate(0.9 1.49)"/><path class="cls-5" d="M84.88,4.21a3.89,3.89,0,1,1,3.9,3.88,3.9,3.9,0,0,1-3.9-3.88Z" transform="translate(0.9 1.49)"/><path class="cls-6" d="M91.12,4.11a2.34,2.34,0,0,0-1.51-2.18l0,4.37a2.32,2.32,0,0,0,1.49-2.19ZM88,6.3l0-4.36A2.33,2.33,0,0,0,88,6.3ZM88.77.43a3.69,3.69,0,1,0,3.7,3.67A3.68,3.68,0,0,0,88.77.43Zm0,7.72a4,4,0,0,1-4.08-4A4,4,0,0,1,88.76.1h1A4.11,4.11,0,0,1,94,4.14a4.19,4.19,0,0,1-4.19,4Z" transform="translate(0.9 1.49)"/><g class="cls-7"><path class="cls-5" d="M59.72,7.75c.17,0,.22,0,.21.21v5.22c0,.09,0,.18,0,.28h6.91a.39.39,0,0,0,.32-.14c.31-.36.63-.71,1-1.07.19.22.38.42.58.63s.31.45.52.54a2,2,0,0,0,.78,0h1.35c0,.07,0,.14,0,.2v2.39a.22.22,0,0,1,0,.17h.05V-1.49h0s0,.09,0,.21v2.6H69a.26.26,0,0,0-.3.22c-.15.45-.32.9-.49,1.39l-.07-.14-.47-1.32c0-.09-.07-.15-.18-.15H64.2V3.39h0l-.6-1.34-.27-.62a.18.18,0,0,0-.19-.13q-1.24,0-2.49,0c-.14,0-.17.08-.21.18-.55,1.25-1.1,2.5-1.66,3.75l-1,2.31a2.07,2.07,0,0,1-.08.21h2.07Zm5.22.9c0,.23,0,.24-.23.24H62.32c-.26,0-.26,0-.26.27v.53h2.61c.15,0,.21,0,.2.2s0,.58,0,.89H62.06c0,.25,0,.49,0,.72,0,0,.11.09.17.09h2.69v1.11H60.74V7.77h4.2Zm6.24,4.07H69.79a.32.32,0,0,1-.29-.13c-.4-.45-.81-.89-1.21-1.33l-.14-.15c-.15.18-.3.33-.45.49l-.92,1a.46.46,0,0,1-.18.1H65c.23-.25.43-.47.64-.68l1.59-1.69c.08-.08.08-.13,0-.22-.72-.75-1.43-1.51-2.14-2.26l-.14-.12h1.62a.37.37,0,0,1,.29.13c.4.46.81.9,1.21,1.35l.12.14.53-.58.86-.93a.24.24,0,0,1,.15-.1h1.66L69,10.23l2.34,2.48Zm.2-1.08-1.33-1.41,1.33-1.4ZM59.1,6.38,60.94,2.2a.21.21,0,0,1,.23-.15c.47,0,.95,0,1.42,0a.2.2,0,0,1,.21.14l2,4.57A.41.41,0,0,0,65,7V2.07l.2,0c.58,0,1.16,0,1.74,0a.2.2,0,0,1,.23.16c.32.92.65,1.83,1,2.75a1.36,1.36,0,0,1,.07.18A1,1,0,0,0,68.27,5c.33-.91.66-1.81,1-2.72a.23.23,0,0,1,.26-.19c.56,0,1.12,0,1.68,0h.19V7H70.07V3.62h0a.84.84,0,0,0-.06.14L68.83,6.83a.22.22,0,0,1-.26.19h-.8a.2.2,0,0,1-.24-.17l-1.11-3-.09-.23h-.06v.2c0,1,0,2,0,3,0,.18,0,.23-.23.23H63.59a.19.19,0,0,1-.22-.15c-.1-.24-.21-.48-.3-.72a.19.19,0,0,0-.2-.13h-2a.18.18,0,0,0-.2.13c-.1.25-.2.49-.31.74,0,.05-.08.12-.12.12H58.82Z" transform="translate(0.9 1.49)"/><path class="cls-8" d="M71.35,16.22a.22.22,0,0,0,0-.17V13.66c0-.06,0-.13,0-.2H70a2,2,0,0,1-.78,0c-.21-.09-.35-.35-.52-.54s-.39-.41-.58-.63c-.34.36-.66.71-1,1.07a.39.39,0,0,1-.32.14H60c0-.1,0-.19,0-.28V8c0-.16,0-.21-.21-.21H57.65a2.07,2.07,0,0,0,.08-.21l1-2.31c.56-1.25,1.11-2.5,1.66-3.75,0-.1.07-.18.21-.18q1.25,0,2.49,0a.18.18,0,0,1,.19.13l.27.62.6,1.34h0V1.33h3.28c.11,0,.15.06.18.15l.47,1.32.07.14c.17-.49.34-.94.49-1.39a.26.26,0,0,1,.3-.22h2.4v-2.6c0-.12,0-.18,0-.21H44V16.22Z" transform="translate(0.9 1.49)"/><path class="cls-8" d="M66.27,3.62v.2c0,1,0,2,0,3,0,.18,0,.23-.23.23H63.59a.19.19,0,0,1-.22-.15c-.1-.24-.21-.48-.3-.72a.19.19,0,0,0-.2-.13h-2a.18.18,0,0,0-.2.13c-.1.25-.2.49-.31.74,0,.05-.08.12-.12.12H58.82l.28-.64L60.94,2.2a.21.21,0,0,1,.23-.15c.47,0,.95,0,1.42,0a.2.2,0,0,1,.21.14l2,4.57A.41.41,0,0,0,65,7V2.07l.2,0c.58,0,1.16,0,1.74,0a.2.2,0,0,1,.23.16c.32.92.65,1.83,1,2.75a1.36,1.36,0,0,1,.07.18A1,1,0,0,0,68.27,5c.33-.91.66-1.81,1-2.72a.23.23,0,0,1,.26-.19c.56,0,1.12,0,1.68,0h.19V7H70.07V3.62h0a.84.84,0,0,0-.06.14L68.83,6.83a.22.22,0,0,1-.26.19h-.8a.2.2,0,0,1-.24-.17l-1.11-3-.09-.23Zm-4.39-.31h-.06l-.66,1.61h1.39Z" transform="translate(0.9 1.49)"/><path class="cls-8" d="M69,10.23l2.34,2.48H69.79a.32.32,0,0,1-.29-.13c-.4-.45-.81-.89-1.21-1.33l-.14-.15c-.15.18-.3.33-.45.49l-.92,1a.46.46,0,0,1-.18.1H65c.23-.25.43-.47.64-.68l1.59-1.69c.08-.08.08-.13,0-.22-.72-.75-1.43-1.51-2.14-2.26l-.14-.12v.9c0,.23,0,.24-.23.24H62.32c-.26,0-.26,0-.26.27v.53h2.61c.15,0,.21,0,.2.2s0,.58,0,.89H62.06c0,.25,0,.49,0,.72,0,0,.11.09.17.09h2.69v1.11H60.74V7.77h5.82a.37.37,0,0,1,.29.13c.4.46.81.9,1.21,1.35l.12.14.53-.58.86-.93a.24.24,0,0,1,.15-.1h1.66Z" transform="translate(0.9 1.49)"/><path class="cls-8" d="M71.38,11.64l-1.33-1.41,1.33-1.4Z" transform="translate(0.9 1.49)"/><path class="cls-5" d="M61.88,3.31l.67,1.61H61.16l.66-1.61Z" transform="translate(0.9 1.49)"/></g><path class="cls-9" d="M33.66,12.81a.55.55,0,0,0-.3-.3.59.59,0,0,0-.23,0H33l-.14,0-.13.08a.45.45,0,0,0-.1.13.61.61,0,0,0-.2-.19.54.54,0,0,0-.29-.07H32l-.11,0a.39.39,0,0,0-.11.06.52.52,0,0,0-.1.11v-.18h-.3V14h.31v-.8a.47.47,0,0,1,0-.17.75.75,0,0,1,.07-.12l.12-.07a.32.32,0,0,1,.14,0,.33.33,0,0,1,.24.1.41.41,0,0,1,.09.28V14h.31v-.81a.41.41,0,0,1,0-.16.36.36,0,0,1,.08-.12.24.24,0,0,1,.12-.07.32.32,0,0,1,.14,0,.3.3,0,0,1,.24.1.39.39,0,0,1,.08.28V14h.31V13A.59.59,0,0,0,33.66,12.81Z" transform="translate(0.9 1.49)"/><path class="cls-9" d="M35.16,12.5v.17a.65.65,0,0,0-.18-.15.6.6,0,0,0-.27-.06.72.72,0,0,0-.29.06.87.87,0,0,0-.23.16,1,1,0,0,0-.15.24.81.81,0,0,0-.06.31.94.94,0,0,0,.06.3.72.72,0,0,0,.16.25.61.61,0,0,0,.23.15.67.67,0,0,0,.28.06.54.54,0,0,0,.27-.06.58.58,0,0,0,.19-.16V14h.31V12.5Zm0,.91a.71.71,0,0,1-.08.15.42.42,0,0,1-.14.09.37.37,0,0,1-.18,0,.34.34,0,0,1-.18,0,.28.28,0,0,1-.14-.1.42.42,0,0,1-.09-.14.57.57,0,0,1,0-.18.48.48,0,0,1,0-.18.38.38,0,0,1,.09-.15.32.32,0,0,1,.13-.1.41.41,0,0,1,.19,0,.33.33,0,0,1,.17,0,.34.34,0,0,1,.14.09.38.38,0,0,1,.09.15,1.16,1.16,0,0,1,0,.18A.41.41,0,0,1,35.15,13.41Z" transform="translate(0.9 1.49)"/><path class="cls-9" d="M36.56,13.08l-.15,0-.09,0-.08,0-.05,0s0,0,0-.06a.16.16,0,0,1,.08-.13.34.34,0,0,1,.2,0h.13l.13,0,.1,0,.09,0,.13-.25a.68.68,0,0,0-.26-.11,1.15,1.15,0,0,0-.33,0,1,1,0,0,0-.25,0,.51.51,0,0,0-.18.09.35.35,0,0,0-.12.15.41.41,0,0,0,0,.19.37.37,0,0,0,.12.29.74.74,0,0,0,.37.14l.15,0a.38.38,0,0,1,.19.06.11.11,0,0,1,.06.1.15.15,0,0,1-.08.13.68.68,0,0,1-.25.05l-.16,0a.24.24,0,0,1-.12,0l-.11,0-.08-.06-.15.24a.65.65,0,0,0,.16.09l.17.06.16,0h.13a.79.79,0,0,0,.28,0,.67.67,0,0,0,.21-.09A.87.87,0,0,0,37,13.7a.45.45,0,0,0,0-.2.34.34,0,0,0-.13-.28A.78.78,0,0,0,36.56,13.08Z" transform="translate(0.9 1.49)"/><path class="cls-9" d="M39.9,12.65a.86.86,0,0,0-.22-.15.66.66,0,0,0-.28-.05.68.68,0,0,0-.29.05.63.63,0,0,0-.23.16,1,1,0,0,0-.15.24,1,1,0,0,0,0,.31.75.75,0,0,0,.06.31.58.58,0,0,0,.15.24.78.78,0,0,0,.24.16.94.94,0,0,0,.3.05.81.81,0,0,0,.31-.05.72.72,0,0,0,.28-.16l-.16-.22a.49.49,0,0,1-.2.11.54.54,0,0,1-.22,0,.32.32,0,0,1-.14,0,.31.31,0,0,1-.13-.06.4.4,0,0,1-.1-.12.38.38,0,0,1-.06-.16h1.07a.11.11,0,0,0,0-.06V13.2a1.06,1.06,0,0,0-.05-.31A1,1,0,0,0,39.9,12.65Zm-.89.44a.54.54,0,0,1,0-.15.44.44,0,0,1,.08-.11.36.36,0,0,1,.12-.08l.15,0a.32.32,0,0,1,.24.09.38.38,0,0,1,.12.26Z" transform="translate(0.9 1.49)"/><path class="cls-9" d="M44.1,12.47v.17a.58.58,0,0,0-.19-.15.54.54,0,0,0-.27-.06.67.67,0,0,0-.28.06.63.63,0,0,0-.23.16.67.67,0,0,0-.16.24,1,1,0,0,0,0,.31.73.73,0,0,0,.06.3.65.65,0,0,0,.15.24.87.87,0,0,0,.23.16.72.72,0,0,0,.29.06.6.6,0,0,0,.27-.06.55.55,0,0,0,.18-.16v.18h.32V12.46Zm0,.91a.42.42,0,0,1-.09.14.36.36,0,0,1-.14.1.48.48,0,0,1-.18,0,.37.37,0,0,1-.18,0,.45.45,0,0,1-.14-.1.53.53,0,0,1-.08-.15.48.48,0,0,1,0-.18.57.57,0,0,1,0-.18.29.29,0,0,1,.08-.14.28.28,0,0,1,.14-.1.34.34,0,0,1,.18,0,.48.48,0,0,1,.18,0,.71.71,0,0,1,.14.1.38.38,0,0,1,.09.15.48.48,0,0,1,0,.18A.58.58,0,0,1,44.09,13.38Z" transform="translate(0.9 1.49)"/><path class="cls-9" d="M38.29,13.65l-.15,0-.09,0-.07,0a.26.26,0,0,1,0-.09.37.37,0,0,1,0-.12v-.63h.51v-.28h-.51v-.44h-.32v.44H37.3v.29h.29v.63a.63.63,0,0,0,.14.43.53.53,0,0,0,.39.14.6.6,0,0,0,.24-.05l.14-.06-.11-.27Z" transform="translate(0.9 1.49)"/><path class="cls-9" d="M41.15,12.44a.6.6,0,0,0-.24.05.39.39,0,0,0-.18.18v-.19h-.28v1.45h.29v-.8a.38.38,0,0,1,0-.16.33.33,0,0,1,.07-.13.23.23,0,0,1,.1-.07.35.35,0,0,1,.14,0h.13l.06,0,.09-.3-.07,0Z" transform="translate(0.9 1.49)"/><path class="cls-9" d="M45.54,12.42a.6.6,0,0,0-.24.05.52.52,0,0,0-.18.18v-.19h-.28v1.45h.29v-.8a.78.78,0,0,1,0-.16.35.35,0,0,1,.07-.12.28.28,0,0,1,.11-.08.32.32,0,0,1,.14,0l.13,0h.06l.09-.3-.08,0Z" transform="translate(0.9 1.49)"/><path class="cls-9" d="M47.33,11.86H47v.76a.58.58,0,0,0-.19-.15.53.53,0,0,0-.26-.06.68.68,0,0,0-.29.06.73.73,0,0,0-.23.16.58.58,0,0,0-.15.24.73.73,0,0,0-.06.3.75.75,0,0,0,.06.31.78.78,0,0,0,.16.24.63.63,0,0,0,.23.16.52.52,0,0,0,.28,0,.76.76,0,0,0,.27,0,.58.58,0,0,0,.19-.16v.18h.31ZM47,13.37a.42.42,0,0,1-.09.14.32.32,0,0,1-.13.1.45.45,0,0,1-.37,0,.32.32,0,0,1-.13-.1.38.38,0,0,1-.09-.15.48.48,0,0,1,0-.18.57.57,0,0,1,0-.18.64.64,0,0,1,.08-.14.49.49,0,0,1,.14-.11.52.52,0,0,1,.18,0,.48.48,0,0,1,.18,0,.5.5,0,0,1,.14.1A.38.38,0,0,1,47,13a.48.48,0,0,1,0,.18A.58.58,0,0,1,47,13.37Z" transform="translate(0.9 1.49)"/><path class="cls-9" d="M42.43,13.63a.64.64,0,0,1-.2,0l-.18,0a.33.33,0,0,1-.14-.1.45.45,0,0,1-.1-.14.62.62,0,0,1,0-.38.36.36,0,0,1,.24-.24.47.47,0,0,1,.38,0,.46.46,0,0,1,.15.09l.15-.26a1.18,1.18,0,0,0-.19-.11.65.65,0,0,0-.31-.05,1,1,0,0,0-.31.05.74.74,0,0,0-.25.17.6.6,0,0,0-.16.24.78.78,0,0,0,0,.6.6.6,0,0,0,.16.24.67.67,0,0,0,.25.16.81.81,0,0,0,.31.06.78.78,0,0,0,.31-.06l.2-.11-.16-.25A.54.54,0,0,1,42.43,13.63Z" transform="translate(0.9 1.49)"/><path class="cls-10" d="M37.26,5.71a5.46,5.46,0,0,1,2.06-4.29A5.53,5.53,0,0,0,35.92.25,5.47,5.47,0,1,0,39.35,10,5.43,5.43,0,0,1,37.26,5.71Z" transform="translate(0.9 1.49)"/><path class="cls-11" d="M37.26,5.71A5.43,5.43,0,0,0,39.35,10a5.46,5.46,0,0,0,0-8.57A5.46,5.46,0,0,0,37.26,5.71Z" transform="translate(0.9 1.49)"/><path class="cls-12" d="M47.83,8.63V8.47h-.07v0h.18v0h-.07v.16Zm.34,0V8.49l-.05.12h0l0-.12v.14H48v-.2h.07l.05.13,0-.13h.07v.21Z" transform="translate(0.9 1.49)"/><path class="cls-12" d="M42.7.23a5.41,5.41,0,0,0-3.38,1.19,5.46,5.46,0,0,1,0,8.57A5.46,5.46,0,1,0,42.7.23Z" transform="translate(0.9 1.49)"/><g class="cls-13"><rect class="cls-5" x="-0.88" y="-0.25" width="22.85" height="14.13" transform="translate(0.88 1.53) rotate(-0.2)"/><path d="M7.26,4.36,5.8,8.21,5.18,5a.67.67,0,0,0-.66-.58H2.1l0,.17A6,6,0,0,1,3.48,5a.63.63,0,0,1,.34.5L5,10h1.5L8.76,4.36Z" transform="translate(0.9 1.49)"/><path id="SVGID-7" data-name="SVGID" class="cls-2" d="M7.26,4.36,5.8,8.21,5.18,5a.67.67,0,0,0-.66-.58H2.1l0,.17A6,6,0,0,1,3.48,5a.63.63,0,0,1,.34.5L5,10h1.5L8.76,4.36Z" transform="translate(0.9 1.49)"/><g class="cls-14"><polygon class="cls-2" points="3.01 5.85 3.03 11.5 2.98 11.5 2.98 5.85 3.01 5.85"/><polygon class="cls-2" points="3.33 5.85 3.35 11.5 3.03 11.5 3.01 5.85 3.33 5.85"/><polygon class="cls-2" points="3.64 5.85 3.66 11.5 3.35 11.5 3.33 5.85 3.64 5.85"/><polygon class="cls-2" points="3.96 5.85 3.98 11.5 3.66 11.5 3.64 5.85 3.96 5.85"/><polygon class="cls-2" points="4.27 5.85 4.29 11.5 3.98 11.5 3.96 5.85 4.27 5.85"/><polygon class="cls-2" points="4.58 5.85 4.61 11.5 4.29 11.5 4.27 5.85 4.58 5.85"/><polygon class="cls-2" points="4.9 5.85 4.92 11.5 4.61 11.5 4.58 5.85 4.9 5.85"/><polygon class="cls-2" points="5.21 5.85 5.24 11.5 4.92 11.5 4.9 5.85 5.21 5.85"/><polygon class="cls-2" points="5.53 5.85 5.55 11.5 5.24 11.5 5.21 5.85 5.53 5.85"/><polygon class="cls-2" points="5.84 5.85 5.87 11.5 5.55 11.5 5.53 5.85 5.84 5.85"/><polygon class="cls-2" points="6.16 5.85 6.18 11.5 5.87 11.5 5.84 5.85 6.16 5.85"/><polygon class="cls-2" points="6.47 5.85 6.5 11.5 6.18 11.5 6.16 5.85 6.47 5.85"/><polygon class="cls-2" points="6.79 5.85 6.81 11.5 6.5 11.5 6.47 5.85 6.79 5.85"/><polygon class="cls-2" points="7.11 5.85 7.13 11.5 6.81 11.5 6.79 5.85 7.11 5.85"/><polygon class="cls-2" points="7.42 5.85 7.44 11.5 7.13 11.5 7.11 5.85 7.42 5.85"/><polygon class="cls-2" points="7.74 5.85 7.76 11.5 7.44 11.5 7.42 5.85 7.74 5.85"/><polygon class="cls-2" points="8.05 5.85 8.07 11.5 7.76 11.5 7.74 5.85 8.05 5.85"/><polygon class="cls-2" points="8.37 5.85 8.39 11.5 8.07 11.5 8.05 5.85 8.37 5.85"/><polygon class="cls-2" points="8.68 5.85 8.7 11.5 8.39 11.5 8.37 5.85 8.68 5.85"/><polygon class="cls-2" points="8.99 5.85 9.02 11.5 8.7 11.5 8.68 5.85 8.99 5.85"/><polygon class="cls-2" points="9.31 5.85 9.33 11.5 9.02 11.5 8.99 5.85 9.31 5.85"/><polygon class="cls-2" points="9.63 5.85 9.65 11.5 9.33 11.5 9.31 5.85 9.63 5.85"/><polygon class="cls-2" points="9.65 11.5 9.63 5.85 9.66 5.85 9.66 11.5 9.65 11.5"/></g><rect id="SVGID-8" data-name="SVGID" class="cls-2" x="-0.11" y="0.04" width="22.15" height="2.03" transform="matrix(1, 0, 0, 1, 0.9, 1.53)"/><g class="cls-15"><polygon class="cls-2" points="0.79 1.58 0.8 3.61 0.79 3.61 0.79 1.58"/><polygon class="cls-2" points="1.17 1.5 1.19 3.61 0.63 3.61 0.62 1.58 0.62 1.5 1.17 1.5"/><polygon class="cls-2" points="1.57 1.5 1.57 3.61 1.19 3.61 1.18 1.5 1.57 1.5"/><polygon class="cls-2" points="1.95 1.5 1.96 3.61 1.57 3.61 1.57 1.5 1.95 1.5"/><polygon class="cls-2" points="2.34 1.5 2.35 3.61 1.96 3.61 1.95 1.5 2.34 1.5"/><polygon class="cls-2" points="2.73 1.5 2.74 3.61 2.35 3.61 2.34 1.5 2.73 1.5"/><polygon class="cls-2" points="3.12 1.5 3.13 3.61 2.74 3.61 2.73 1.5 3.12 1.5"/><polygon class="cls-2" points="3.51 1.5 3.52 3.61 3.13 3.61 3.12 1.5 3.51 1.5"/><polygon class="cls-2" points="3.9 1.5 3.9 3.61 3.52 3.61 3.51 1.5 3.9 1.5"/><polygon class="cls-2" points="4.29 1.5 4.29 3.61 3.9 3.61 3.9 1.5 4.29 1.5"/><polygon class="cls-2" points="4.67 1.5 4.68 3.61 4.29 3.61 4.29 1.5 4.67 1.5"/><polygon class="cls-2" points="5.06 1.5 5.07 3.61 4.68 3.61 4.67 1.5 5.06 1.5"/><polygon class="cls-2" points="5.45 1.5 5.46 3.61 5.07 3.61 5.06 1.5 5.45 1.5"/><polygon class="cls-2" points="5.84 1.5 5.85 3.61 5.46 3.61 5.45 1.5 5.84 1.5"/><polygon class="cls-2" points="6.23 1.5 6.24 3.61 5.85 3.61 5.84 1.5 6.23 1.5"/><polygon class="cls-2" points="6.62 1.5 6.62 3.61 6.24 3.61 6.23 1.5 6.62 1.5"/><polygon class="cls-2" points="7 1.5 7.01 3.61 6.62 3.61 6.62 1.5 7 1.5"/><polygon class="cls-2" points="7.39 1.5 7.4 3.61 7.01 3.61 7 1.5 7.39 1.5"/><polygon class="cls-2" points="7.78 1.5 7.79 3.61 7.4 3.61 7.39 1.5 7.78 1.5"/><polygon class="cls-2" points="8.17 1.5 8.18 3.61 7.79 3.61 7.78 1.5 8.17 1.5"/><polygon class="cls-2" points="8.56 1.5 8.57 3.61 8.18 3.61 8.17 1.5 8.56 1.5"/><polygon class="cls-2" points="8.95 1.5 8.96 3.61 8.57 3.61 8.56 1.5 8.95 1.5"/><polygon class="cls-2" points="9.34 1.5 9.34 3.61 8.96 3.61 8.95 1.5 9.34 1.5"/><polygon class="cls-2" points="9.72 1.5 9.73 3.61 9.34 3.61 9.34 1.5 9.72 1.5"/><polygon class="cls-2" points="10.11 1.5 10.12 3.61 9.73 3.61 9.72 1.5 10.11 1.5"/><polygon class="cls-2" points="10.5 1.5 10.51 3.61 10.12 3.61 10.11 1.5 10.5 1.5"/><polygon class="cls-2" points="10.89 1.5 10.9 3.61 10.51 3.61 10.5 1.5 10.89 1.5"/><polygon class="cls-2" points="11.28 1.5 11.29 3.61 10.9 3.61 10.89 1.5 11.28 1.5"/><polygon class="cls-2" points="11.67 1.5 11.68 3.61 11.29 3.61 11.28 1.5 11.67 1.5"/><polygon class="cls-2" points="12.06 1.5 12.06 3.61 11.68 3.61 11.67 1.5 12.06 1.5"/><polygon class="cls-2" points="12.44 1.5 12.45 3.61 12.06 3.61 12.06 1.5 12.44 1.5"/><polygon class="cls-2" points="12.83 1.5 12.84 3.61 12.45 3.61 12.44 1.5 12.83 1.5"/><polygon class="cls-2" points="13.22 1.5 13.23 3.61 12.84 3.61 12.83 1.5 13.22 1.5"/><polygon class="cls-2" points="13.61 1.5 13.62 3.61 13.23 3.61 13.22 1.5 13.61 1.5"/><polygon class="cls-2" points="14 1.5 14.01 3.61 13.62 3.61 13.61 1.5 14 1.5"/><polygon class="cls-2" points="14.39 1.5 14.39 3.61 14.01 3.61 14 1.5 14.39 1.5"/><polygon class="cls-2" points="14.78 1.5 14.78 3.61 14.39 3.61 14.39 1.5 14.78 1.5"/><polygon class="cls-2" points="15.16 1.5 15.17 3.61 14.78 3.61 14.78 1.5 15.16 1.5"/><polygon class="cls-2" points="15.55 1.5 15.56 3.61 15.17 3.61 15.16 1.5 15.55 1.5"/><polygon class="cls-2" points="15.94 1.5 15.95 3.61 15.56 3.61 15.55 1.5 15.94 1.5"/><polygon class="cls-2" points="16.33 1.5 16.34 3.61 15.95 3.61 15.94 1.5 16.33 1.5"/><polygon class="cls-2" points="16.72 1.5 16.73 3.61 16.34 3.61 16.33 1.5 16.72 1.5"/><polygon class="cls-2" points="17.11 1.5 17.11 3.61 16.73 3.61 16.72 1.5 17.11 1.5"/><polygon class="cls-2" points="17.5 1.5 17.5 3.61 17.11 3.61 17.11 1.5 17.5 1.5"/><polygon class="cls-2" points="17.88 1.5 17.89 3.61 17.5 3.61 17.5 1.5 17.88 1.5"/><polygon class="cls-2" points="18.27 1.5 18.28 3.61 17.89 3.61 17.88 1.5 18.27 1.5"/><polygon class="cls-2" points="18.66 1.5 18.67 3.61 18.28 3.61 18.27 1.5 18.66 1.5"/><polygon class="cls-2" points="19.05 1.5 19.06 3.61 18.67 3.61 18.66 1.5 19.05 1.5"/><polygon class="cls-2" points="19.44 1.5 19.45 3.61 19.06 3.61 19.05 1.5 19.44 1.5"/><polygon class="cls-2" points="19.83 1.5 19.83 3.61 19.45 3.61 19.44 1.5 19.83 1.5"/><polygon class="cls-2" points="20.21 1.5 20.22 3.61 19.83 3.61 19.83 1.5 20.21 1.5"/><polygon class="cls-2" points="20.6 1.5 20.61 3.61 20.22 3.61 20.21 1.5 20.6 1.5"/><polygon class="cls-2" points="20.99 1.5 21 3.61 20.61 3.61 20.6 1.5 20.99 1.5"/><polygon class="cls-2" points="21.38 1.5 21.39 3.61 21 3.61 20.99 1.5 21.38 1.5"/><polygon class="cls-2" points="21.77 1.5 21.78 3.61 21.39 3.61 21.38 1.5 21.77 1.5"/><polygon class="cls-2" points="22.16 1.5 22.16 3.61 21.78 3.61 21.77 1.5 22.16 1.5"/><polygon class="cls-2" points="22.55 1.5 22.55 3.61 22.16 3.61 22.16 1.5 22.55 1.5"/><polygon class="cls-2" points="22.93 1.5 22.94 3.53 22.94 3.61 22.55 3.61 22.55 1.5 22.93 1.5"/><polygon class="cls-2" points="22.94 3.53 22.93 1.5 22.94 1.5 22.94 3.53"/></g><rect id="SVGID-9" data-name="SVGID" class="cls-3" x="-0.07" y="12.25" width="22.15" height="2.03" transform="translate(0.86 1.53) rotate(-0.21)"/><g class="cls-16"><polygon class="cls-3" points="0.83 13.78 0.84 15.81 0.83 15.81 0.83 13.78"/><polygon class="cls-3" points="1.23 13.7 1.24 15.81 0.84 15.81 0.83 13.78 0.83 13.7 1.23 13.7"/><polygon class="cls-3" points="1.63 13.7 1.63 15.81 1.24 15.81 1.23 13.7 1.63 13.7"/><polygon class="cls-3" points="2.02 13.7 2.03 15.81 1.63 15.81 1.63 13.7 2.02 13.7"/><polygon class="cls-3" points="2.42 13.7 2.42 15.81 2.03 15.81 2.02 13.7 2.42 13.7"/><polygon class="cls-3" points="2.81 13.7 2.82 15.81 2.42 15.81 2.42 13.7 2.81 13.7"/><polygon class="cls-3" points="3.21 13.7 3.21 15.81 2.82 15.81 2.81 13.7 3.21 13.7"/><polygon class="cls-3" points="3.6 13.7 3.61 15.81 3.21 15.81 3.21 13.7 3.6 13.7"/><polygon class="cls-3" points="4 13.7 4 15.81 3.61 15.81 3.6 13.7 4 13.7"/><polygon class="cls-3" points="4.39 13.7 4.4 15.81 4 15.81 4 13.7 4.39 13.7"/><polygon class="cls-3" points="4.79 13.7 4.8 15.81 4.4 15.81 4.39 13.7 4.79 13.7"/><polygon class="cls-3" points="5.18 13.7 5.19 15.81 4.8 15.81 4.79 13.7 5.18 13.7"/><polygon class="cls-3" points="5.58 13.7 5.59 15.81 5.19 15.81 5.18 13.7 5.58 13.7"/><polygon class="cls-3" points="5.97 13.7 5.98 15.81 5.59 15.81 5.58 13.7 5.97 13.7"/><polygon class="cls-3" points="6.37 13.7 6.38 15.81 5.98 15.81 5.97 13.7 6.37 13.7"/><polygon class="cls-3" points="6.77 13.7 6.77 15.81 6.38 15.81 6.37 13.7 6.77 13.7"/><polygon class="cls-3" points="7.16 13.7 7.17 15.81 6.77 15.81 6.77 13.7 7.16 13.7"/><polygon class="cls-3" points="7.56 13.7 7.56 15.81 7.17 15.81 7.16 13.7 7.56 13.7"/><polygon class="cls-3" points="7.95 13.7 7.96 15.81 7.56 15.81 7.56 13.7 7.95 13.7"/><polygon class="cls-3" points="8.35 13.7 8.36 15.81 7.96 15.81 7.95 13.7 8.35 13.7"/><polygon class="cls-3" points="8.74 13.7 8.75 15.81 8.36 15.81 8.35 13.7 8.74 13.7"/><polygon class="cls-3" points="9.14 13.7 9.15 15.81 8.75 15.81 8.74 13.7 9.14 13.7"/><polygon class="cls-3" points="9.53 13.7 9.54 15.81 9.15 15.81 9.14 13.7 9.53 13.7"/><polygon class="cls-3" points="9.93 13.7 9.94 15.81 9.54 15.81 9.53 13.7 9.93 13.7"/><polygon class="cls-3" points="10.32 13.7 10.33 15.81 9.94 15.81 9.93 13.7 10.32 13.7"/><polygon class="cls-3" points="10.72 13.7 10.73 15.81 10.33 15.81 10.32 13.7 10.72 13.7"/><polygon class="cls-3" points="11.12 13.7 11.12 15.81 10.73 15.81 10.72 13.7 11.12 13.7"/><polygon class="cls-3" points="11.51 13.7 11.52 15.81 11.12 15.81 11.12 13.7 11.51 13.7"/><polygon class="cls-3" points="11.91 13.7 11.91 15.81 11.52 15.81 11.51 13.7 11.91 13.7"/><polygon class="cls-3" points="12.3 13.7 12.31 15.81 11.91 15.81 11.91 13.7 12.3 13.7"/><polygon class="cls-3" points="12.7 13.7 12.71 15.81 12.31 15.81 12.3 13.7 12.7 13.7"/><polygon class="cls-3" points="13.09 13.7 13.1 15.81 12.71 15.81 12.7 13.7 13.09 13.7"/><polygon class="cls-3" points="13.49 13.7 13.5 15.81 13.1 15.81 13.09 13.7 13.49 13.7"/><polygon class="cls-3" points="13.88 13.7 13.89 15.81 13.5 15.81 13.49 13.7 13.88 13.7"/><polygon class="cls-3" points="14.28 13.7 14.29 15.81 13.89 15.81 13.88 13.7 14.28 13.7"/><polygon class="cls-3" points="14.68 13.7 14.68 15.81 14.29 15.81 14.28 13.7 14.68 13.7"/><polygon class="cls-3" points="15.07 13.7 15.08 15.81 14.68 15.81 14.68 13.7 15.07 13.7"/><polygon class="cls-3" points="15.47 13.7 15.47 15.81 15.08 15.81 15.07 13.7 15.47 13.7"/><polygon class="cls-3" points="15.86 13.7 15.87 15.81 15.47 15.81 15.47 13.7 15.86 13.7"/><polygon class="cls-3" points="16.26 13.7 16.27 15.81 15.87 15.81 15.86 13.7 16.26 13.7"/><polygon class="cls-3" points="16.65 13.7 16.66 15.81 16.27 15.81 16.26 13.7 16.65 13.7"/><polygon class="cls-3" points="17.05 13.7 17.06 15.81 16.66 15.81 16.65 13.7 17.05 13.7"/><polygon class="cls-3" points="17.44 13.7 17.45 15.81 17.06 15.81 17.05 13.7 17.44 13.7"/><polygon class="cls-3" points="17.84 13.7 17.85 15.81 17.45 15.81 17.44 13.7 17.84 13.7"/><polygon class="cls-3" points="18.23 13.7 18.24 15.81 17.85 15.81 17.84 13.7 18.23 13.7"/><polygon class="cls-3" points="18.63 13.7 18.64 15.81 18.24 15.81 18.23 13.7 18.63 13.7"/><polygon class="cls-3" points="19.02 13.7 19.03 15.81 18.64 15.81 18.63 13.7 19.02 13.7"/><polygon class="cls-3" points="19.42 13.7 19.43 15.81 19.03 15.81 19.02 13.7 19.42 13.7"/><polygon class="cls-3" points="19.82 13.7 19.82 15.81 19.43 15.81 19.42 13.7 19.82 13.7"/><polygon class="cls-3" points="20.21 13.7 20.22 15.81 19.82 15.81 19.82 13.7 20.21 13.7"/><polygon class="cls-3" points="20.61 13.7 20.61 15.81 20.22 15.81 20.21 13.7 20.61 13.7"/><polygon class="cls-3" points="21 13.7 21.01 15.81 20.61 15.81 20.61 13.7 21 13.7"/><polygon class="cls-3" points="21.4 13.7 21.41 15.81 21.01 15.81 21 13.7 21.4 13.7"/><polygon class="cls-3" points="21.79 13.7 21.8 15.81 21.41 15.81 21.4 13.7 21.79 13.7"/><polygon class="cls-3" points="22.19 13.7 22.2 15.81 21.8 15.81 21.79 13.7 22.19 13.7"/><polygon class="cls-3" points="22.58 13.7 22.59 15.81 22.2 15.81 22.19 13.7 22.58 13.7"/><polygon class="cls-3" points="22.98 13.7 22.99 15.73 22.99 15.81 22.59 15.81 22.58 13.7 22.98 13.7"/><polygon class="cls-3" points="22.99 15.73 22.98 13.7 22.99 13.7 22.99 15.73"/></g><path d="M12.66,5.91c0-.2.19-.42.6-.48a2.62,2.62,0,0,1,1.41.25l.24-1.2a3.91,3.91,0,0,0-1.33-.24c-1.4,0-2.39.77-2.39,1.87,0,.81.71,1.26,1.25,1.53s.74.45.74.7-.44.54-.85.55a2.87,2.87,0,0,1-1.47-.35l-.25,1.24a4.24,4.24,0,0,0,1.58.29c1.5,0,2.48-.77,2.48-1.94C14.67,6.65,12.65,6.57,12.66,5.91Z" transform="translate(0.9 1.49)"/><path id="SVGID-10" data-name="SVGID" class="cls-2" d="M12.66,5.91c0-.2.19-.42.6-.48a2.62,2.62,0,0,1,1.41.25l.24-1.2a3.91,3.91,0,0,0-1.33-.24c-1.4,0-2.39.77-2.39,1.87,0,.81.71,1.26,1.25,1.53s.74.45.74.7-.44.54-.85.55a2.87,2.87,0,0,1-1.47-.35l-.25,1.24a4.24,4.24,0,0,0,1.58.29c1.5,0,2.48-.77,2.48-1.94C14.67,6.65,12.65,6.57,12.66,5.91Z" transform="translate(0.9 1.49)"/><g class="cls-17"><polygon class="cls-2" points="11.52 5.73 11.54 11.56 11.52 11.56 11.52 5.73 11.52 5.73"/><polygon class="cls-2" points="11.83 5.73 11.85 11.56 11.54 11.56 11.52 5.73 11.83 5.73"/><polygon class="cls-2" points="12.14 5.73 12.17 11.56 11.85 11.56 11.83 5.73 12.14 5.73"/><polygon class="cls-2" points="12.46 5.73 12.48 11.56 12.17 11.56 12.14 5.73 12.46 5.73"/><polygon class="cls-2" points="12.78 5.73 12.8 11.56 12.48 11.56 12.46 5.73 12.78 5.73"/><polygon class="cls-2" points="13.09 5.73 13.11 11.56 12.8 11.56 12.78 5.73 13.09 5.73"/><polygon class="cls-2" points="13.4 5.73 13.43 11.56 13.11 11.56 13.09 5.73 13.4 5.73"/><polygon class="cls-2" points="13.72 5.73 13.74 11.56 13.43 11.56 13.4 5.73 13.72 5.73"/><polygon class="cls-2" points="14.04 5.73 14.06 11.56 13.74 11.56 13.72 5.73 14.04 5.73"/><polygon class="cls-2" points="14.35 5.73 14.37 11.56 14.06 11.56 14.04 5.73 14.35 5.73"/><polygon class="cls-2" points="14.66 5.73 14.69 11.56 14.37 11.56 14.35 5.73 14.66 5.73"/><polygon class="cls-2" points="14.98 5.73 15 11.56 14.69 11.56 14.66 5.73 14.98 5.73"/><polygon class="cls-2" points="15.29 5.73 15.32 11.56 15 11.56 14.98 5.73 15.29 5.73"/><polygon class="cls-2" points="15.61 5.73 15.63 11.56 15.32 11.56 15.29 5.73 15.61 5.73"/><polygon class="cls-2" points="15.63 11.56 15.61 5.73 15.82 5.73 15.82 11.56 15.63 11.56"/></g><polygon points="10.27 5.85 9.12 11.49 10.54 11.48 11.69 5.84 10.27 5.85"/><polygon id="SVGID-11" data-name="SVGID" class="cls-2" points="10.27 5.85 9.12 11.49 10.54 11.48 11.69 5.84 10.27 5.85"/><g class="cls-18"><polygon class="cls-2" points="9.31 5.84 9.33 11.49 9.12 11.49 9.12 5.84 9.31 5.84"/><polygon class="cls-2" points="9.63 5.84 9.65 11.49 9.33 11.49 9.31 5.84 9.63 5.84"/><polygon class="cls-2" points="9.94 5.84 9.96 11.49 9.65 11.49 9.63 5.84 9.94 5.84"/><polygon class="cls-2" points="10.26 5.84 10.28 11.49 9.96 11.49 9.94 5.84 10.26 5.84"/><polygon class="cls-2" points="10.57 5.84 10.59 11.49 10.28 11.49 10.26 5.84 10.57 5.84"/><polygon class="cls-2" points="10.88 5.84 10.91 11.49 10.59 11.49 10.57 5.84 10.88 5.84"/><polygon class="cls-2" points="11.2 5.84 11.22 11.49 10.91 11.49 10.88 5.84 11.2 5.84"/><polygon class="cls-2" points="11.52 5.84 11.54 11.49 11.22 11.49 11.2 5.84 11.52 5.84"/><polygon class="cls-2" points="11.54 11.49 11.52 5.84 11.69 5.84 11.69 11.49 11.54 11.49"/></g><path d="M17.32,4.33a.66.66,0,0,0-.61.41L14.6,10h1.49l.3-.85h1.82l.18.84H19.7L18.53,4.32ZM16.79,8l.74-2.12L18,8Z" transform="translate(0.9 1.49)"/><path id="SVGID-12" data-name="SVGID" class="cls-2" d="M17.32,4.33a.66.66,0,0,0-.61.41L14.6,10h1.49l.3-.85h1.82l.18.84H19.7L18.53,4.32ZM16.79,8l.74-2.12L18,8Z" transform="translate(0.9 1.49)"/><g class="cls-19"><polygon class="cls-2" points="17.7 7.34 17.7 7.36 17.7 7.34 17.7 7.34"/><polygon class="cls-2" points="18.01 7.34 17.7 8.96 17.7 7.36 17.7 7.34 18.01 7.34"/><polygon class="cls-2" points="18.33 7.34 17.91 9.46 17.7 9.46 17.7 8.96 18.01 7.34 18.33 7.34"/><polygon class="cls-2" points="18.64 7.34 18.23 9.46 17.91 9.46 18.33 7.34 18.64 7.34"/><polygon class="cls-2" points="18.88 7.76 18.54 9.46 18.23 9.46 18.64 7.34 18.88 7.34 18.88 7.76"/><polygon class="cls-2" points="18.88 9.37 18.86 9.46 18.54 9.46 18.88 7.76 18.88 9.37"/><polygon class="cls-2" points="18.86 9.46 18.88 9.37 18.88 9.46 18.86 9.46"/><polygon class="cls-2" points="15.79 5.82 15.5 7.31 15.5 5.82 15.79 5.82"/><polygon class="cls-2" points="16.11 5.82 15.5 8.91 15.5 7.31 15.79 5.82 16.11 5.82"/><polygon class="cls-2" points="16.42 5.82 15.5 10.52 15.5 8.91 16.11 5.82 16.42 5.82"/><polygon class="cls-2" points="16.74 5.82 15.63 11.46 15.5 11.46 15.5 10.52 16.42 5.82 16.74 5.82"/><polygon class="cls-2" points="17.05 5.82 15.95 11.46 15.63 11.46 16.74 5.82 17.05 5.82"/><polygon class="cls-2" points="17.37 5.82 16.26 11.46 15.95 11.46 17.05 5.82 17.37 5.82"/><polygon class="cls-2" points="17.68 5.82 16.58 11.46 16.26 11.46 17.37 5.82 17.68 5.82"/><polygon class="cls-2" points="18 5.82 16.89 11.46 16.58 11.46 17.68 5.82 18 5.82"/><polygon class="cls-2" points="18.31 5.82 17.2 11.46 16.89 11.46 18 5.82 18.31 5.82"/><polygon class="cls-2" points="18.63 5.82 17.52 11.46 17.2 11.46 18.31 5.82 18.63 5.82"/><polygon class="cls-2" points="18.94 5.82 17.84 11.46 17.52 11.46 18.63 5.82 18.94 5.82"/><polygon class="cls-2" points="19.26 5.82 18.15 11.46 17.84 11.46 18.94 5.82 19.26 5.82"/><polygon class="cls-2" points="19.57 5.82 18.46 11.46 18.15 11.46 19.26 5.82 19.57 5.82"/><polygon class="cls-2" points="19.89 5.82 18.78 11.46 18.46 11.46 19.57 5.82 19.89 5.82"/><polygon class="cls-2" points="18.78 11.46 19.89 5.82 20.61 5.82 20.61 11.46 18.78 11.46"/></g></g></svg>